<svg t="1736434484769" class="icon" viewBox="0 0 1024 1024" version="1.1" xmlns="http://www.w3.org/2000/svg" p-id="2099" width="200" height="200"><path d="M670.677333 395.989333a41.002667 41.002667 0 0 0-58.026666 0L554.666667 454.016l-58.026667-58.026667a41.002667 41.002667 0 0 0-57.984 58.026667L496.682667 512l-58.026667 58.026667a41.002667 41.002667 0 0 0 58.026667 57.984L554.666667 569.984l58.026666 58.026667a41.002667 41.002667 0 0 0 57.984-58.026667L612.650667 512l58.026666-58.026667a41.002667 41.002667 0 0 0 0-57.984z" p-id="2100" fill="#d4237a"></path><path d="M309.333333 117.333333a149.333333 149.333333 0 0 0-149.333333 149.333334v298.666666a149.333333 149.333333 0 0 0 149.333333 149.333334h277.333334a85.333333 85.333333 0 0 0 85.333333-85.333334v-362.666666a149.333333 149.333333 0 0 0-149.333333-149.333334h-213.333334z" p-id="2101" fill="#d4237a"></path><path d="M736 650.666667a128 128 0 0 1-128 128h-140.8a51.2 51.2 0 0 0-51.2 51.2v25.6a51.2 51.2 0 0 0 51.2 51.2h162.133333a234.666667 234.666667 0 0 0 234.666667-234.666667v-247.466667a51.2 51.2 0 0 0-51.2-51.2h-25.6a51.2 51.2 0 0 0-51.2 51.2v226.133334z" p-id="2102" fill="#d4237a"></path></svg>